<?xml version="1.0" encoding="UTF-8"?>
<svg width="50mm" height="50mm" clip-rule="evenodd" fill-rule="evenodd" image-rendering="optimizeQuality" shape-rendering="geometricPrecision" text-rendering="geometricPrecision" version="1.1" viewBox="0 0 50 50" xmlns="http://www.w3.org/2000/svg" xmlns:cc="http://creativecommons.org/ns#" xmlns:dc="http://purl.org/dc/elements/1.1/" xmlns:rdf="http://www.w3.org/1999/02/22-rdf-syntax-ns#">
 <metadata>
  <rdf:RDF>
   <cc:Work rdf:about="">
    <dc:format>image/svg+xml</dc:format>
    <dc:type rdf:resource="http://purl.org/dc/dcmitype/StillImage"/>
    <dc:title/>
   </cc:Work>
  </rdf:RDF>
 </metadata>
 <g transform="matrix(.26458 0 0 .26458 -711.36 975.93)">
  <path d="m2766.6-3667-7.1386 1.3848-4.2832 15.236-11.895 12.465c-6.3204 6.6436-2.3214 17.88-22.535 38.383-2.0769 16.12 2.6715 16.721 17.576 22.605 7.3215 3.6023 7.8823-15.218 28.035-17.062 8.95-3.5523 9.5099-5.9742 15.943-13.451 1.9935 20.561-26.165 29.84-31.883 54.02h77.09c13.325-46.174 12.238-90.972-48.537-99.73zm-2.3789 32.277c0.105 0.01 0.2011 0.035 0.2871 0.078 1.0999 0.5482 1.238 11.036 1.238 11.036s-12.35 3.1848-13.267 3.1848c-1.7462-0.8698 8.4874-14.615 11.742-14.299z" fill="#484544" stroke="#282828" stroke-width="4.9134"/>
  <path d="m2749.3-3553.4s-13.66 5.6178-17.49 14.325v17.262c38.044 0.6713 76.084 0.2626 114.13 0v-17.262c-3.8305-8.707-17.497-14.325-17.497-14.325z" fill="#484544" stroke="#282828" stroke-width="4.9134"/>
  <path d="m2766.6-3667-7.1364 1.3825 11.648 15.36c60.775 8.7588 51.116 50.665 37.791 96.838h1.0239s13.665 5.6177 17.495 14.325v17.264s18.108-0.059 0 0c24.312 0.034 0 0 18.61 0v-17.264c-3.8301-8.707-17.495-14.325-17.495-14.325h-1.024c13.325-46.174 12.232-90.974-48.543-99.733z" opacity=".3"/>
 </g>
</svg>
