<?xml version="1.0" encoding="UTF-8"?>
<svg width="50mm" height="50mm" clip-rule="evenodd" fill-rule="evenodd" image-rendering="optimizeQuality" shape-rendering="geometricPrecision" text-rendering="geometricPrecision" version="1.1" viewBox="0 0 50 50" xmlns="http://www.w3.org/2000/svg" xmlns:cc="http://creativecommons.org/ns#" xmlns:dc="http://purl.org/dc/elements/1.1/" xmlns:rdf="http://www.w3.org/1999/02/22-rdf-syntax-ns#">
 <metadata>
  <rdf:RDF>
   <cc:Work rdf:about="">
    <dc:format>image/svg+xml</dc:format>
    <dc:type rdf:resource="http://purl.org/dc/dcmitype/StillImage"/>
    <dc:title/>
    <cc:license rdf:resource="http://creativecommons.org/licenses/by-nc-nd/4.0/"/>
   </cc:Work>
   <cc:License rdf:about="http://creativecommons.org/licenses/by-nc-nd/4.0/">
    <cc:permits rdf:resource="http://creativecommons.org/ns#Reproduction"/>
    <cc:permits rdf:resource="http://creativecommons.org/ns#Distribution"/>
    <cc:requires rdf:resource="http://creativecommons.org/ns#Notice"/>
    <cc:requires rdf:resource="http://creativecommons.org/ns#Attribution"/>
    <cc:prohibits rdf:resource="http://creativecommons.org/ns#CommercialUse"/>
   </cc:License>
  </rdf:RDF>
 </metadata>
 <g transform="matrix(.26458 0 0 .26458 -671.54 975.45)">
  <g fill="#484544" stroke="#282828" stroke-width="4.9134">
   <path d="m2603-3618.4-7.6515 66.757h74.546l-6.436-66.724"/>
   <path d="m2622.9-3665.2-2.3817 14.093-12.544-1.2497-2.1809-12.033-18.024 3.8806v30.458c3.1282 8.1712 7.2807 9.5431 11.204 11.712 22.839 0 45.619 0.034 68.459 0.034 3.9229-2.1686 8.0751-3.5467 11.203-11.718v-30.451l-18.024-3.8803-2.188 12.024-12.537 1.2513-2.3817-14.087z"/>
   <path d="m2592.9-3551.6s-13.687 5.6128-17.526 14.312v17.247c38.121 0.6707 76.238 0.2625 114.36 0v-17.247c-3.8384-8.6993-17.532-14.312-17.532-14.312z"/>
  </g>
  <path d="m2661.8-3664.4-0.6251 6.2845v28.044c-3.1281 8.1715-7.2829 9.5497-11.206 11.718l2.4404 66.728h2.3732s13.699 5.6122 17.537 14.311v17.243h18.648v-17.243c-3.8384-8.6992-17.537-14.311-17.537-14.311h-2.3733l-7.6269-66.723c3.9229-2.1686 13.264-3.5515 16.392-11.723v-30.451z" opacity=".3"/>
 </g>
</svg>
