<?xml version="1.0" encoding="UTF-8"?>
<svg width="50mm" height="50mm" clip-rule="evenodd" fill-rule="evenodd" image-rendering="optimizeQuality" shape-rendering="geometricPrecision" text-rendering="geometricPrecision" version="1.1" viewBox="0 0 50 50" xmlns="http://www.w3.org/2000/svg" xmlns:cc="http://creativecommons.org/ns#" xmlns:dc="http://purl.org/dc/elements/1.1/" xmlns:rdf="http://www.w3.org/1999/02/22-rdf-syntax-ns#">
 <metadata>
  <rdf:RDF>
   <cc:Work rdf:about="">
    <dc:format>image/svg+xml</dc:format>
    <dc:type rdf:resource="http://purl.org/dc/dcmitype/StillImage"/>
    <dc:title/>
   </cc:Work>
  </rdf:RDF>
 </metadata>
 <g transform="matrix(.26458 0 0 .26458 -581.59 976.06)">
  <path d="m2284.1-3667v12.579h-12.963v16.623h12.266l-2.1217 13.36c-24.169-10.572-46.367-4.9335-54.828 12.248-8.8748 25.112 12.94 41.35 29.4 58.41h73.627c16.46-17.06 38.274-33.298 29.4-58.41-8.4619-17.182-30.66-22.82-54.828-12.248l-2.1336-13.36h12.278v-16.623h-12.963v-12.579zm-26.481 61.03c5.09-0.2339 17.029 1.7262 21.854 4.7897l-4 26.227c-13.425 2.1697-30.528-13.786-28.624-22.633 1.4404-5.7168 5.6793-8.1483 10.77-8.3837zm70.091 0c5.09 0.2369 9.3351 2.6669 10.776 8.3837-0.2561 15.23-15.571 22.633-28.624 22.633l-4-26.227c4.8245-3.0635 16.758-5.0251 21.848-4.7897z" fill="#ebebeb" stroke="#3c3c3c" stroke-width="4.9134"/>
  <path d="m2252.7-3553.7s-13.551 5.5932-17.351 14.262v17.186c37.741 0.6684 75.479 0.2616 113.22 0v-17.186c-3.8001-8.6686-17.358-14.262-17.358-14.262z" fill="#ebebeb" stroke="#3c3c3c" stroke-width="4.9134"/>
  <g transform="matrix(3.077 0 0 3.077 -5176.9 7525.6)" opacity=".3" stroke-width="1.5968">
   <path d="m2438.3-3625.3c-0.7958 0.033-1.6163 0.1369-2.4531 0.293 3.2295 0.6906 5.8067 2.5568 7.2129 5.4121 2.884 8.1609-4.2054 13.438-9.5547 18.982h0.584s4.4056 1.8176 5.6406 4.6348v5.5859s0-0.01 6 0v-5.5859c-1.235-2.8172-5.6425-4.6348-5.6425-4.6348h-0.5821c5.3493-5.5442 12.439-10.822 9.5547-18.982-1.8906-3.8389-5.8918-5.9053-10.76-5.7051z"/>
  </g>
 </g>
</svg>
