<?xml version="1.0" encoding="UTF-8"?>
<svg width="50mm" height="50mm" clip-rule="evenodd" fill-rule="evenodd" image-rendering="optimizeQuality" shape-rendering="geometricPrecision" text-rendering="geometricPrecision" version="1.1" viewBox="0 0 50 50" xmlns="http://www.w3.org/2000/svg" xmlns:cc="http://creativecommons.org/ns#" xmlns:dc="http://purl.org/dc/elements/1.1/" xmlns:rdf="http://www.w3.org/1999/02/22-rdf-syntax-ns#">
 <metadata>
  <rdf:RDF>
   <cc:Work rdf:about="">
    <dc:format>image/svg+xml</dc:format>
    <dc:type rdf:resource="http://purl.org/dc/dcmitype/StillImage"/>
    <dc:title/>
   </cc:Work>
  </rdf:RDF>
 </metadata>
 <g transform="matrix(.26458 0 0 .26458 -538.3 976.13)">
  <path d="m2107.3-3667c-8.7197 0-15.787 6.9892-15.786 15.607 0.01 7.0766 4.8365 13.261 11.76 15.067v30.566l-19.356-9.3405c1.7506-2.5723 2.6863-5.6015 2.6878-8.7015 1e-3 -8.6198-7.0699-15.608-15.792-15.606-8.7197 0-15.787 6.989-15.786 15.606 0 8.6152 7.0687 15.599 15.786 15.601 0.7754 0 1.5495-0.063 2.316-0.1784l21.666 54.531 34.248-0.16 34.241 0.16 21.666-54.531c0.7664 0.1156 1.5404 0.1752 2.3157 0.1784 8.7173 0 15.784-6.9854 15.786-15.601 1e-3 -8.6175-7.0663-15.604-15.786-15.606-8.722 0-15.793 6.9867-15.792 15.606 0 3.1 0.9374 6.1293 2.6881 8.7015l-19.356 9.3405v-30.566c6.9234-1.8061 11.75-7.9905 11.76-15.067 0-8.6176-7.0662-15.605-15.786-15.607-8.7221 0-15.793 6.9869-15.792 15.607 0.01 5.0932 2.5338 9.8612 6.7619 12.773l-12.708 25.771-12.714-25.771c4.2281-2.912 6.7522-7.68 6.7619-12.773 0-8.6198-7.0698-15.608-15.792-15.607z" fill="#ebebeb" stroke="#3c3c3c" stroke-width="4.9134"/>
  <path d="m2089.8-3554s-13.543 5.59-17.341 14.254v17.177c37.72 0.6679 75.436 0.2614 113.16 0v-17.177c-3.798-8.6637-17.348-14.254-17.348-14.254z" fill="#ebebeb" stroke="#3c3c3c" stroke-width="4.9134"/>
  <path d="m2144.9-3554h4.9254c-3e-4 0 13.548 5.5897 17.346 14.253v17.178s-28.192 0.3247 18.452 0v-17.178c-3.798-8.6636-17.347-14.253-17.346-14.253h-4.9254l21.598-54.371c-3.9054-4.6181-39.853 53.889-40.05 54.371z" opacity=".3"/>
 </g>
</svg>
